<svg preserveAspectRatio="none" width="100%" height="100%" overflow="visible" style="display: block;" viewBox="0 0 24 24" fill="none" xmlns="http://www.w3.org/2000/svg">
<g id="map icon">
<path id="Vector" d="M4.30769 16.5V13.5C4.30769 13.1022 4.46978 12.7206 4.7583 12.4393C5.04681 12.158 5.43813 12 5.84615 12H18.1538C18.5619 12 18.9532 12.158 19.2417 12.4393C19.5302 12.7206 19.6923 13.1022 19.6923 13.5V16.5M12 7.5V16.5M9.69231 4.5V6C9.69231 6.39782 9.8544 6.77936 10.1429 7.06066C10.4314 7.34196 10.8227 7.5 11.2308 7.5H12.7692C13.1773 7.5 13.5686 7.34196 13.8571 7.06066C14.1456 6.77936 14.3077 6.39782 14.3077 6V4.5C14.3077 4.10218 14.1456 3.72064 13.8571 3.43934C13.5686 3.15804 13.1773 3 12.7692 3H11.2308C10.8227 3 10.4314 3.15804 10.1429 3.43934C9.8544 3.72064 9.69231 4.10218 9.69231 4.5ZM9.69231 18V19.5C9.69231 19.8978 9.8544 20.2794 10.1429 20.5607C10.4314 20.842 10.8227 21 11.2308 21H12.7692C13.1773 21 13.5686 20.842 13.8571 20.5607C14.1456 20.2794 14.3077 19.8978 14.3077 19.5V18C14.3077 17.6022 14.1456 17.2206 13.8571 16.9393C13.5686 16.658 13.1773 16.5 12.7692 16.5H11.2308C10.8227 16.5 10.4314 16.658 10.1429 16.9393C9.8544 17.2206 9.69231 17.6022 9.69231 18ZM2 18V19.5C2 19.8978 2.16209 20.2794 2.4506 20.5607C2.73912 20.842 3.13044 21 3.53846 21H5.07692C5.48495 21 5.87626 20.842 6.16478 20.5607C6.4533 20.2794 6.61538 19.8978 6.61538 19.5V18C6.61538 17.6022 6.4533 17.2206 6.16478 16.9393C5.87626 16.658 5.48495 16.5 5.07692 16.5H3.53846C3.13044 16.5 2.73912 16.658 2.4506 16.9393C2.16209 17.2206 2 17.6022 2 18ZM17.3846 18V19.5C17.3846 19.8978 17.5467 20.2794 17.8352 20.5607C18.1237 20.842 18.5151 21 18.9231 21H20.4615C20.8696 21 21.2609 20.842 21.5494 20.5607C21.8379 20.2794 22 19.8978 22 19.5V18C22 17.6022 21.8379 17.2206 21.5494 16.9393C21.2609 16.658 20.8696 16.5 20.4615 16.5H18.9231C18.5151 16.5 18.1237 16.658 17.8352 16.9393C17.5467 17.2206 17.3846 17.6022 17.3846 18Z" stroke="var(--stroke-0, white)" stroke-width="1.5" stroke-linecap="round" stroke-linejoin="round"/>
</g>
</svg>
